/* XPM */
static char * pixmap[] = {
/* width height num_colors chars_per_pixel */
"32 32 9 1",
/* colors */
"  c #875D3E",
"! c #78820D",
"# c #72543C",
"$ c #493627",
"% c #444907",
"& c #3F2C1F",
"' c #3DCC00",
"( c #332418",
") c #2D2016",
/* pixels */
"!!!!!!!!!!!!!!!!!'%!!!!!!!!!!!'%",
"!!!!!!!!!!!!!!!!''%!!!!!!!!!!''%",
"!!!!!!!!!!!!!!!!''%!!!!!!!!!!''%",
"!!!!!!!!!!!!!!!'''%!!!!!!!!!'''%",
"!!!!!!!!!!!!!!'''%%!!!!!!!!'''%%",
"!!!!!!''!!!!!!''%%!!''!!!!!''%%!",
"!!!!!!'%!!!!!!''%!!!'%!!!!!''%!!",
"!!!!!''%!!!!!!''%!!''%!!!!!''%!!",
"!!!!!''%))))))))))))))))!!'''%!!",
"!!!!''%)&&&&&&&&&&&&&&&&)!''%%!!",
"!!!''')&&&&&&&&&#&&&#&&#&&'%%!!!",
"!!!'')&&#&&&############&&)!!!!!",
"!!''')(##################()!!!!!",
"!!''%)&(################( )!!!!!",
"!!'%%)&&(##############(  )!!!!!",
"!!!!!)&&&(############)   )!!!!!",
"!!!!!)&&&&(##########(    )!!!!!",
"!!!!!)&&&&&((((((((((     )!!!!!",
"!!!!!)&&&&&&$#            )!!!!!",
"!!!!!)&&&&&$$#            )!!!!!",
"!!!!!)&&&&&$$#            )!!!!!",
"!!!!!)&&&&&$$#            )!!!!!",
"!!!!!)&&&&&$##            )!!!!!",
"!!!!')&&&&$$#             )!!!!!",
"!!!'')&&&&$$#             )!!!!!",
"!!!'')&&&$$##             )!!!!!",
"!!!'')&&&$$#              )!!!!!",
"!!!'%)&&$$#               )!!!!!",
"!!!!!)&$$##               )!!!!!",
"!!!!!)&$#                 )!!!!!",
"!!!!!!))))))))))))))))))))!!!!!!",
"!!!!!)!!!!!!!!!!!!!!!!!!!!)!!!!!"
};
