/* XPM */
static char * pixmap[] = {
/* width height num_colors chars_per_pixel */
"32 32 6 1",
/* colors */
"  c #AF4600",
"! c #7F3300",
"# c #78820D",
"$ c #444907",
"% c #3DCC00",
"& c #267F00",
/* pixels */
"##########%%$$######%%$$########",
"###&###&#%%%$&###&#%%%$&###&####",
"###&&#&&#%%$$&&#&&#%%$$&&#&&####",
"#####&##%%%$###&##%%%$###&######",
"#####&##%%$$###&##%%$$###&######",
"####!!!#%$$#%%!!!#%$$#%%!!!#####",
"###!   !####%$   !####%$   !###%",
"###!   !###%%$   !###%%$   !###%",
"###!   !###%%$   !###%%$   !##%%",
"###!%% !##%%$$   !##%%$$   !##%%",
"####%$###%%%$######%%%$######%%$",
"###%%$#&#%%$$&###&#%%$$&###&%%%$",
"###%%$&&%%%$#&&#&&%%%$#&&#&&%%$$",
"##%%$$##%%$$###&##%%$$###&#%%%$#",
"#%%%$&##%$$####&##%$$####&#%%$$#",
"#%%$$!!#######!!!#######!!!%$$##",
"%%%$   !#####!   !#####!   !###%",
"%%$$   !#####!   !#####!   !###%",
"%$$!   !#####!   !#####!   !##%%",
"###%%  !#####!   !#####!   !##%%",
"###%$########################%%$",
"##%%$##&####%%###&#####%%##&%%%$",
"##%%$#&&####%$&#&&#####%$#&&%%$$",
"#%%$$&#####%%$#&######%%$&#%%%$#",
"%%%$#&#####%%$#&######%%$&#%%$$#",
"%%$$!!!###%%$$!!!####%%$$!!%$$##",
"%%$!   !#%%%$!   !##%%%$   !####",
"%$$!   !#%%$$!   !##%%$$   !####",
"$$#!   !%%%$#!   !#%%%$!   !####",
"###!   !%%$$#!   !#%%$$!   !####",
"########%$$########%$$##########",
"################################"
};
