/* XPM */
static char * pixmap[] = {
/* width height num_colors chars_per_pixel */
"16 16 2 1",
/* colors */
"  c #31A500",
"! c #247A00",
/* pixels */
"                ",
" !!!!!!!!!!!!!!!",
" !! !!!!!!!!!!!!",
" !! !!! !!!!!!!!",
" ! !!!!! !!! !!!",
" !!! !!! !!! !!!",
" !! !!! !!!!! !!",
" !! !!!! !!! !!!",
" !!! !!!!!!!! !!",
" !! !!!!!!!!!!!!",
" !!!!!!!!!!!!!!!",
" !!!!!!!!! !!!!!",
" !!! !!!!! !!!!!",
" !! !!!!! !!!!!!",
" !!! !!!!! !!!!!",
" !! !!!!!!!!!!!!"
};
