/* XPM */
static char * pixmap[] = {
/* width height num_colors chars_per_pixel */
"32 32 3 1",
/* colors */
"  c #78820D",
"! c #444907",
"# c #3DCC00",
/* pixels */
"                 #!           #!",
"                ##!          ##!",
"                ##!          ##!",
"               ###!         ###!",
"              ###!!        ###!!",
"      ##      ##!!  ##     ##!! ",
"      #!      ##!   #!     ##!  ",
"     ##!      ##!  ##!     ##!  ",
"     ##!     ###!  ##!    ###!  ",
"    ##!!     ##!! ##!!    ##!!  ",
"   ###!      #!! ###!  ## #!!   ",
"   ##!!     ##   ##!!  #!       ",
"  ###!      #!  ###!  ##!       ",
"  ##!!     ##!  ##!!  ##!       ",
"  #!!      ##!  #!!   ##!       ",
"           ##!        ##!       ",
"           ##!       ##!!       ",
"      ##  ##!!      ###!        ",
"      #! ###!       ###! ##     ",
"     ##! ###!   ##  ##!! #!     ",
"     ##! ##!!   #!  #!! ##!     ",
"     ##! #!!   ##!      ##!     ",
"     ##!       ##!     ###!     ",
"    ##!!      ##!!    ###!!     ",
"   ###!      ###!     ##!!      ",
"   ###!      ##!!     ##!       ",
"   ##!!     ###!      ##!       ",
"   #!!      ##!!     ###!       ",
"            #!!      ##!!       ",
"                     #!!        ",
"                                ",
"                                "
};
