/* XPM */
static char * pixmap[] = {
/* width height num_colors chars_per_pixel */
"32 32 16 1",
/* colors */
"  c #AF4600",
"! c #AE4500",
"# c #AD4500",
"$ c #875D3E",
"% c #803300",
"& c #7F3300",
"' c #78820D",
"( c #72543C",
") c #6F553A",
"* c #493627",
"+ c #444907",
", c #3F2C1F",
"- c #3DCC00",
". c #332418",
"/ c #2D2016",
"0 c #267F00",
/* pixels */
"'''''''''''''''''-+'''''''''''-+",
"''''''''''''''''--+''''''''''--+",
"''''''''''''''''--+''''''''''--+",
"'''''''''''''''---+'''''''''---+",
"''''''''''''''---++''''''''---++",
"''''''--''''''--++''--'''''--++'",
"''''''-+''''''--+'''-+'''''--+''",
"'''''--+''0'00-00'00-00'0''--+''",
"'''''--0/0/0//0//0//0//0''---+''",
"''''--+/0,0&,0&,,&,0&0,&/'--++''",
"'''---/,&0& &&0&0 && &0 &,-++'''",
"'''--/,0 &0 0& &&0&0 0& 0,/'''''",
"''---/.&00&0 0&)0&0&0& 0(./'''''",
"''--+/,.& 0& & && &0&0 &.$/'''''",
"''-++/,,.& &0& 0&0&&0 &.$$/'''''",
"'''''/,,,. 0 00!0 & & /$$$/'''''",
"'''''/,,,,.& &%#& & &.$$$$/'''''",
"'''''/,,,,,..........$$$$$/'''''",
"'''''/,,,,,,*($$$$$$$$$$$$/'''''",
"'''''/,,,,,**($$$$$$$$$$$$/'''''",
"'''''/,,,,,**($$$$$$$$$$$$/'''''",
"'''''/,,,,,**($$$$$$$$$$$$/'''''",
"'''''/,,,,,*(($$$$$$$$$$$$/'''''",
"''''-/,,,,**($$$$$$$$$$$$$/'''''",
"'''--/,,,,**($$$$$$$$$$$$$/'''''",
"'''--/,,,**(($$$$$$$$$$$$$/'''''",
"'''--/,,,**($$$$$$$$$$$$$$/'''''",
"'''-+/,,**($$$$$$$$$$$$$$$/'''''",
"'''''/,**(($$$$$$$$$$$$$$$/'''''",
"'''''/,*($$$$$$$$$$$$$$$$$/'''''",
"''''''////////////////////''''''",
"'''''/''''''''''''''''''''/'''''"
};
