/* XPM */
static char * pixmap[] = {
/* width height num_colors chars_per_pixel */
"32 32 22 1",
/* colors */
"  c #F3DA38",
"! c #E49763",
"# c #DCD5C2",
"$ c #B14D36",
"% c #A4A931",
"& c #792503",
"' c #78820D",
"( c #767178",
") c #651701",
"* c #53212C",
"+ c #4F8A20",
", c #4F59B0",
"- c #4D0600",
". c #4C0700",
"/ c #444907",
"0 c #3DCC00",
"1 c #333237",
"2 c #330000",
"3 c #284B13",
"4 c #272D81",
"5 c #102117",
"6 c #090B32",
/* pixels */
"'''''''''''''''''0/'''''''''''0/",
"''''''''''''''''00/''''''''''00/",
"''''''''''''''''00/''''''''''00/",
"''''''''''''''2202/'''''''''000/",
"''''''''''''22))2&22'''''''000//",
"''''''00''''2&.&2).)20'''''00//'",
"''''''0/'''2.))&.).&.2'''''00/''",
"'''''00/'''2)&)&)))&)2'''''00/''",
"'''''00/'''2))))))))&2''''000/''",
"''''00//'''2)-)&)))))/''''00//''",
"'''000/''''2--)))-)-2''00'0//'''",
"'''00//''''2---)--)-2''0/'''''''",
"''000/''''''2--)---2''00/'''''''",
"''00//'''''002----2/''00/'''''''",
"''0//''''''055222255''00/'''''''",
"'''''''''''5%%3333% 5'00/'''''''",
"''''''''''5 +++++++3 30//'''''''",
"''''''00''5+3++++++++30/''''''''",
"''''''0/'05+5++++++5+30/'00'''''",
"'''''00/'05353+3+3+5+3//'0/'''''",
"'''''00/'05+533+3+35+3/'00/'''''",
"'''''00/'0*!53333335!*''00/'''''",
"'''''00/''*$55555555$*'000/'''''",
"''''00//'''*64444446*'000//'''''",
"'''000/'''''6,,,,,,6''00//''''''",
"'''000/'''''6,4664,6''00/'''''''",
"'''00//'''''6,,66,,6''00/'''''''",
"'''0//''''''6,4664,6'000/'''''''",
"''''''''''''6,4664,6'00//'''''''",
"''''''''''''1(#66#(1'0//''''''''",
"''''''''''''(#(11(#(''''''''''''",
"''''''''''''111''111''''''''''''"
};
