/* XPM */
static char * pixmap[] = {
/* width height num_colors chars_per_pixel */
"32 32 41 1",
/* colors */
"  c #FFF3E8",
"! c #FC8C5C",
"# c #F6D83C",
"$ c #EE8D63",
"% c #E0D5B7",
"& c #BC482F",
"' c #BA9E3B",
"( c #AF473E",
") c #AEA9A5",
"* c #A84E46",
"+ c #A79E7F",
", c #A45D1D",
"- c #78820D",
". c #76707C",
"/ c #762507",
"0 c #650812",
"1 c #631805",
"2 c #5D0B17",
"3 c #5C0A20",
"4 c #5A1B0A",
"5 c #570E17",
"6 c #51862E",
"7 c #4F8A20",
"8 c #4F5AAC",
"9 c #4E0300",
": c #4D0700",
"; c #4C0700",
"< c #4A0701",
"= c #4A0000",
"> c #444907",
"? c #3DCC00",
"@ c #3A0000",
"A c #380000",
"B c #345216",
"C c #333237",
"D c #2F4A05",
"E c #2E2B36",
"F c #272D81",
"G c #162200",
"H c #112117",
"I c #090C2D",
/* pixels */
"-----------------?>-----------?>",
"----------------??>----------??>",
"-------------@-@@@>----------??>",
"-------------@@;1/4@--------???>",
"------------@1/1:1:14@@----???>>",
"------??---@1:11::@:1@-----??>>-",
"------?>---@1:@1:@0@:4@----??>--",
"-----??>---@:1@1@((0@>@----??>--",
"-----??>---@1:(@(==(0>----???>--",
"----??>>---@<A!(!+G!0>----??>>--",
"---???>----@<A!!! B!!0-??-?>>---",
"---??>>-----@99!!!!!0--?>-------",
"--???>------?@@,!!!0--??>-------",
"--??>>-----??H5D,00>--??>-------",
"--?>>------?H#'H'DH---??>-------",
"-----------?H#77D6H---??>-------",
"-----------H#D77D#DH-??>>-------",
"------??--?HD7H77H7H???>--------",
"------?>-??H77H77'7HH??>-??-----",
"-----??>-??H77HD7HDHH?>>-?>-----",
"-----??>-??HD7HD7'DHH>>-??>-----",
"-----??>-?>HDDHHHHHH3---??>-----",
"-----??>---2&$*FFFI*3--???>-----",
"----??>>---2$$3F88I3--???>>-----",
"---???>-----2*F8I8I---??>>------",
"---???>------IF8I8I---??>-------",
"---??>>-----?IF8I8I---??>-------",
"---?>>------?IF8I8I--???>-------",
"------------?IF8I8I--??>>-------",
"-------------I.)E%)E-?>>--------",
"-------------C.%)C%)E-----------",
"-------------CCCCCEEE-----------"
};
