/* XPM */
static char * pixmap[] = {
/* width height num_colors chars_per_pixel */
"32 32 35 1",
/* colors */
"  c #FEF7F1",
"! c #FDD923",
"# c #FC8C5C",
"$ c #E2D6B0",
"% c #C0492B",
"& c #C0472A",
"' c #BE4729",
"( c #BBA221",
") c #B1A99E",
"* c #9CA381",
"+ c #941B13",
", c #7A2500",
"- c #78820D",
". c #766F7F",
"/ c #641703",
"0 c #631707",
"1 c #63081A",
"2 c #4F8A20",
"3 c #4E59B3",
"4 c #4D0600",
"5 c #4C0700",
"6 c #444907",
"7 c #3DCC00",
"8 c #320001",
"9 c #320000",
": c #2A4717",
"; c #294918",
"< c #292830",
"= c #272D81",
"> c #181A31",
"? c #15601F",
"@ c #152300",
"A c #102310",
"B c #10230F",
"C c #012C01",
/* pixels */
"------------9-99976-----------76",
"-----------99/,//999---------776",
"----------900544494/---------776",
"---------9058+449+44--------7776",
"----------9599&49959-------77766",
"------77--1+*C#&C*+177-----7766-",
"------76--1# ?##? #176-----776--",
"-----776---1######1776-----776--",
"-----776----1####1-776----7776--",
"----7766---;A1''1A;766----7766--",
"---7776---;!(A##A(!;6--77-766---",
"---7766--;!;2(AA(2;!;--76-------",
"--7776--;22;222(22;22;776-------",
"--7766--;22B222(22B22;776-------",
"--766---;22B22:@22B22;776-------",
"-------;222B222(22B222;76-------",
"-------;22;B22:@22B;22;66-------",
"------7;22;B;22(2;B;22;6--------",
"------71###%122(21%###16-77-----",
"-----771###%12:@21%###16-76-----",
"-----771%##1>>>@>>1##%1-776-----",
"-----776111>=3333=>111--776-----",
"-----776--->33==33>----7776-----",
"----7766--->=3>>33>---77766-----",
"---7776---->=3>>33>---7766------",
"---7776---->=3>>=3>---776-------",
"---7766---->=3>>=3>---776-------",
"---766----->=3>>=3>--7776-------",
"----------->=3>>=3>--7766-------",
"----------<)$$<<))$<-766--------",
"----------<$).<<$..<------------",
"----------<<<<<<<<<<------------"
};
