/* XPM */
static char * pixmap[] = {
/* width height num_colors chars_per_pixel */
"32 32 41 1",
/* colors */
"  c #FFF3E8",
"! c #FC8C5C",
"# c #F6D83C",
"$ c #EE8D63",
"% c #E0D5B7",
"& c #BC482F",
"' c #BA9E3B",
"( c #AF473E",
") c #AEA9A5",
"* c #A84E46",
"+ c #A79E7F",
", c #A45D1D",
"- c #78820D",
". c #76707C",
"/ c #762507",
"0 c #650812",
"1 c #631805",
"2 c #5D0B17",
"3 c #5C0A20",
"4 c #5A1B0A",
"5 c #570E17",
"6 c #51862E",
"7 c #4F8A20",
"8 c #4F5AAC",
"9 c #4E0300",
": c #4D0700",
"; c #4C0700",
"< c #4A0701",
"= c #4A0000",
"> c #444907",
"? c #3DCC00",
"@ c #3A0000",
"A c #380000",
"B c #345216",
"C c #333237",
"D c #2F4A05",
"E c #2E2B36",
"F c #272D81",
"G c #162200",
"H c #112117",
"I c #090C2D",
/* pixels */
"-----------------?>-----------?>",
"----------------??>----------??>",
"--------------@@@?@----------??>",
"------------@4/1;@@---------???>",
"---------@@41:1:1/1@-------???>>",
"------??--@1:@::11:1@?-----??>>-",
"------?>-@4:@0@:1@:1@>-----??>--",
"-----??>-@-@0((@1@1:@>-----??>--",
"-----??>---0(==(@(:1@>----???>--",
"----??>>---0!G+!(!A<@>----??>>--",
"---???>---0!!B !!!A<@--??-?>>---",
"---??>>----0!!!!!99@>--?>-------",
"--???>------0!!!,@@>--??>-------",
"--??>>-----??00,D5H>--??>-------",
"--?>>------??HD'H'#H--??>-------",
"-----------??H6D77#H--??>-------",
"-----------?HD#D77D#H??>>-------",
"------??--??H7H77H7DH??>--------",
"------?>-??HH7'77H77H??>-??-----",
"-----??>-??HHDH7DH77H?>>-?>-----",
"-----??>-??HHD'7DH7DH>>-??>-----",
"-----??>-?>3HHHHHHDDH---??>-----",
"-----??>---3*IFFF*$&2--???>-----",
"----??>>----3I88F3$$2-???>>-----",
"---???>------I8I8F*2--??>>------",
"---???>------I8I8FI---??>-------",
"---??>>-----?I8I8FI---??>-------",
"---?>>------?I8I8FI--???>-------",
"------------?I8I8FI--??>>-------",
"------------E)%E).I--?>>--------",
"-----------E)%C)%.C-------------",
"-----------EEECCCCC-------------"
};
