/* XPM */
static char * pixmap[] = {
/* width height num_colors chars_per_pixel */
"32 32 4 1",
/* colors */
"  c #C4C4C4",
"! c #777777",
"# c #4C4C4C",
"$ c #333333",
/* pixels */
"                                ",
"                                ",
"                                ",
"                                ",
"                                ",
"                                ",
"                                ",
"                                ",
"                                ",
"                                ",
"                $$$$            ",
"             $$$$##$$$          ",
"             $########$$$$      ",
"        $$$$$$#!!!!!!!###$      ",
"       $$######!!!!!!!!!#$$$$   ",
"     $$$##!!!!!!!!!!!!!!####$$$ ",
"   $$$###!!!!!!!!!!!!!!!!!!!##$$",
"$$$$###!!!!!!!!!!!!!!!!!!!!!!###",
"$####!!!!!!!!!!!!!!!!!!!!!!!!!!!",
"##!!!!!!!!!!!!!!$$$!!!!!!!!!!!!!",
"!!!!!!!!!!!!!!!!$#$$$$$!!!!!!!!!",
"!!!!!!!!!!!!!!!$$#####$$$$$$$$!!",
"!!!!!!!$$!!!!!!###!!!########$$!",
"!!!!!$$$$$!!!!!!!!!!!!!!!!!!##$!",
"!!!!$$###$$$!!!!!!!!!!!!!!!!!##!",
"!!$$$##!###$!!!!!!!!!!!!!!!!!!!!",
"!$$##!!!!!!!!!!!!!!!!!!!!!!!!!!!",
"!###!!!!!!!!!!!!!!!$$$$$$$!!!!!!",
"!!!!!!!!!!!!!!!!!!$$#####$$$!!!!",
"!!!!!!!!!!!!!!!$$$$#!!!!!##$$!!!",
"!!!!!!!!!!!!!!!$####!!!!!!!##!!!",
"!!!!!!!!!!!!!!!!!!!!!!!!!!!!!!!!"
};
